<svg xmlns="http://www.w3.org/2000/svg" xmlns:xlink="http://www.w3.org/1999/xlink" width="71" height="71" viewBox="0 0 71 71">
  <defs>
    <filter id="Ellipse_2" x="0" y="0" width="71" height="71" filterUnits="userSpaceOnUse">
      <feOffset dy="5" input="SourceAlpha"/>
      <feGaussianBlur stdDeviation="6.5" result="blur"/>
      <feFlood flood-color="#00ff80"/>
      <feComposite operator="in" in2="blur"/>
      <feComposite in="SourceGraphic"/>
    </filter>
    <linearGradient id="linear-gradient" x1="0.5" x2="0.5" y2="1" gradientUnits="objectBoundingBox">
      <stop offset="0" stop-color="#00ff80"/>
      <stop offset="1" stop-color="#008040"/>
    </linearGradient>
  </defs>
  <g id="Group_11" data-name="Group 11" transform="translate(19.26 14.633)">
    <g transform="matrix(1, 0, 0, 1, -19.26, -14.63)" filter="url(#Ellipse_2)">
      <g id="Ellipse_2-2" data-name="Ellipse 2" transform="translate(19.5 14.5)" fill="none" stroke="#00ff80" stroke-width="1">
        <circle cx="16" cy="16" r="16" stroke="none"/>
        <circle cx="16" cy="16" r="15.5" fill="none"/>
      </g>
    </g>
    <g id="Group_5" data-name="Group 5" transform="translate(11.502 5.112)">
      <g id="Group_4" data-name="Group 4" transform="translate(0 0)">
        <path id="Path_11" data-name="Path 11" d="M1899.725,874.305a2.238,2.238,0,1,1,0-4.476h3.385a1.146,1.146,0,0,0,0-2.292h-2.238v-1.485a1.146,1.146,0,0,0-2.292,0v1.632a4.53,4.53,0,0,0,1.146,8.913,2.238,2.238,0,1,1,0,4.476h-3.385a1.146,1.146,0,0,0,0,2.293h2.238v1.485a1.146,1.146,0,0,0,2.292,0v-1.632a4.53,4.53,0,0,0-1.146-8.913Z" transform="translate(-1895.195 -864.906)" fill="url(#linear-gradient)"/>
      </g>
    </g>
  </g>
</svg>
