<svg xmlns="http://www.w3.org/2000/svg" xmlns:xlink="http://www.w3.org/1999/xlink" width="71" height="71" viewBox="0 0 71 71">
  <defs>
    <filter id="Ellipse_3" x="0" y="0" width="71" height="71" filterUnits="userSpaceOnUse">
      <feOffset dy="5" input="SourceAlpha"/>
      <feGaussianBlur stdDeviation="6.5" result="blur"/>
      <feFlood flood-color="#0bf"/>
      <feComposite operator="in" in2="blur"/>
      <feComposite in="SourceGraphic"/>
    </filter>
    <linearGradient id="linear-gradient" x1="0.544" y1="0.465" x2="0.291" y2="1" gradientUnits="objectBoundingBox">
      <stop offset="0" stop-color="#0bf"/>
      <stop offset="0.687" stop-color="#263852" stop-opacity="0.29"/>
      <stop offset="1" stop-color="#2a2a40" stop-opacity="0.059"/>
    </linearGradient>
  </defs>
  <g id="Group_10" data-name="Group 10" transform="translate(19.26 13.519)">
    <g transform="matrix(1, 0, 0, 1, -19.26, -13.52)" filter="url(#Ellipse_3)">
      <g id="Ellipse_3-2" data-name="Ellipse 3" transform="translate(19.5 14.5)" fill="none" stroke="#0bf" stroke-width="1">
        <circle cx="16" cy="16" r="16" stroke="none"/>
        <circle cx="16" cy="16" r="15.5" fill="none"/>
      </g>
    </g>
    <path id="Intersection_1" data-name="Intersection 1" d="M3.626,34.691A17.011,17.011,0,0,1,0,32.6l.532-.85a1.876,1.876,0,0,1,2.142-.687l1.747.636A5.965,5.965,0,0,1,9.7,29.245l.462-4.091a4.782,4.782,0,0,1-.979-2.6,7.92,7.92,0,0,1-2.667-5.81C3.157,12.485,1.7,8.657,2.181,5.351L2.2,5.26,4.109,0l8.6,3.131a6.692,6.692,0,0,0-.1-1.07.233.233,0,0,1,.087-.228.265.265,0,0,1,.251-.037L28.273,7.378a.248.248,0,0,1,.169.189.225.225,0,0,1-.079.228v0a5.806,5.806,0,0,0-.757.756L36.2,11.683l-1.913,5.262-.049.077c-1.749,2.846-5.33,4.839-10.64,5.94A7.916,7.916,0,0,1,17.82,25.7a4.788,4.788,0,0,1-2.258,1.319l-2.2,3.671a6,6,0,0,1,2.247,4.533,22.891,22.891,0,0,1-5.343.814A16.974,16.974,0,0,1,3.626,34.691ZM26.37,11.2c-.782,4.337-1.444,8.12-1.729,9.546,3.127-.825,6.3-2.233,7.84-4.658l1.2-3.318-5.274-1.92.065,1.123-1.8.24-.108-1.8A5.939,5.939,0,0,0,26.37,11.2ZM17.7,19c.35.389.713.285.807-.231l.443-2.44,2.257-1.022c.48-.215.492-.593.032-.842l-2.185-1.175-.272-2.464c-.056-.52-.411-.65-.789-.288L16.2,12.254l-2.427-.506c-.513-.1-.745.2-.52.667l1.075,2.233L13.106,16.8c-.26.455-.048.768.469.7l2.459-.332ZM4.126,5.765c-.379,2.848,1.148,5.974,3.02,8.617.686-1.22,2.543-4.322,4.687-7.931a4.662,4.662,0,0,0,.226-.423l.325-.79a.48.48,0,0,0,.017-.051L11.04,6.579,9.819,5.243l.835-.856L5.334,2.451Z" transform="translate(6.556 -3)" stroke="rgba(0,0,0,0)" stroke-miterlimit="10" stroke-width="1" fill="url(#linear-gradient)"/>
  </g>
</svg>
