<svg xmlns="http://www.w3.org/2000/svg" xmlns:xlink="http://www.w3.org/1999/xlink" width="71" height="71" viewBox="0 0 71 71">
  <defs>
    <filter id="Ellipse_4" x="0" y="0" width="71" height="71" filterUnits="userSpaceOnUse">
      <feOffset dy="5" input="SourceAlpha"/>
      <feGaussianBlur stdDeviation="6.5" result="blur"/>
      <feFlood flood-color="#7f00ff"/>
      <feComposite operator="in" in2="blur"/>
      <feComposite in="SourceGraphic"/>
    </filter>
    <linearGradient id="linear-gradient" x1="0.5" x2="0.5" y2="1" gradientUnits="objectBoundingBox">
      <stop offset="0" stop-color="#7f00ff"/>
      <stop offset="1" stop-color="#400080"/>
    </linearGradient>
  </defs>
  <g id="Group_9" data-name="Group 9" transform="translate(19.26 14.208)">
    <g transform="matrix(1, 0, 0, 1, -19.26, -14.21)" filter="url(#Ellipse_4)">
      <g id="Ellipse_4-2" data-name="Ellipse 4" transform="translate(19.5 14.5)" fill="none" stroke="#7f00ff" stroke-width="1">
        <circle cx="16" cy="16" r="16" stroke="none"/>
        <circle cx="16" cy="16" r="15.5" fill="none"/>
      </g>
    </g>
    <path id="Intersection_2" data-name="Intersection 2" d="M8.179,21.021V.473A.473.473,0,0,1,8.654,0h6.625a.473.473,0,0,1,.474.473c0,12.185-.053,18.347-.139,21.463a15.814,15.814,0,0,1-1.854.109A15.621,15.621,0,0,1,8.179,21.021ZM16.354,5.326a.476.476,0,0,1,.476-.476h6.626a.477.477,0,0,1,.479.476V18.289a15.6,15.6,0,0,1-7.58,3.542ZM0,13.86V9.5a.477.477,0,0,1,.475-.476H7.1a.474.474,0,0,1,.471.476V20.775A15.721,15.721,0,0,1,0,13.86Z" transform="translate(2.214 9.587)" stroke="rgba(0,0,0,0)" stroke-miterlimit="10" stroke-width="1" fill="url(#linear-gradient)"/>
  </g>
</svg>
