<svg xmlns="http://www.w3.org/2000/svg" xmlns:xlink="http://www.w3.org/1999/xlink" width="71" height="71" viewBox="0 0 71 71">
  <defs>
    <filter id="Ellipse_6" x="0" y="0" width="71" height="71" filterUnits="userSpaceOnUse">
      <feOffset dy="5" input="SourceAlpha"/>
      <feGaussianBlur stdDeviation="6.5" result="blur"/>
      <feFlood flood-color="#f62463"/>
      <feComposite operator="in" in2="blur"/>
      <feComposite in="SourceGraphic"/>
    </filter>
    <linearGradient id="linear-gradient" x1="0.5" x2="0.5" y2="1" gradientUnits="objectBoundingBox">
      <stop offset="0" stop-color="#f62463"/>
      <stop offset="1" stop-color="#7b1232"/>
    </linearGradient>
  </defs>
  <g id="Group_32" data-name="Group 32" transform="translate(-4.5 -338.5)">
    <g transform="matrix(1, 0, 0, 1, 4.5, 338.5)" filter="url(#Ellipse_6)">
      <g id="Ellipse_6-2" data-name="Ellipse 6" transform="translate(19.5 14.5)" fill="none" stroke="#f62463" stroke-width="1">
        <circle cx="16" cy="16" r="16" stroke="none"/>
        <circle cx="16" cy="16" r="15.5" fill="none"/>
      </g>
    </g>
    <path id="Path_17" data-name="Path 17" d="M-885.465,894.308l-5.233-9.063a.33.33,0,0,0-.286-.165H-901.45a.33.33,0,0,0-.286.165l-5.233,9.063a.332.332,0,0,0,0,.331l5.233,9.063a.331.331,0,0,0,.286.165h10.466a.331.331,0,0,0,.286-.165l5.232-9.063A.33.33,0,0,0-885.465,894.308Zm-7.132,2.255a4.192,4.192,0,0,1-3.62,2.09,4.193,4.193,0,0,1-3.62-2.09,4.191,4.191,0,0,1,0-4.18,4.191,4.191,0,0,1,3.62-2.09,4.192,4.192,0,0,1,3.62,2.09A4.19,4.19,0,0,1-892.6,896.564Z" transform="translate(936.013 -525.08)" fill="url(#linear-gradient)"/>
  </g>
</svg>
